# Blender v2.79 (sub 0) OBJ File: ''
# www.blender.org
mtllib cone.mtl
o Cone
v -0.031439 -0.002886 -1.008797
v 0.163652 -0.002886 -0.989582
v 0.351245 -0.002886 -0.932676
v 0.524132 -0.002886 -0.840266
v 0.675668 -0.002886 -0.715904
v 0.800031 -0.002886 -0.564367
v 0.892441 -0.002886 -0.391480
v 0.949347 -0.002886 -0.203887
v 0.968561 -0.002886 -0.008797
v 0.949347 -0.002886 0.186293
v 0.892441 -0.002886 0.373887
v 0.800031 -0.002886 0.546773
v 0.675668 -0.002886 0.698310
v 0.524132 -0.002886 0.822673
v 0.351245 -0.002886 0.915083
v 0.163652 -0.002886 0.971989
v -0.031439 -0.002886 0.991203
v -0.226529 -0.002886 0.971988
v -0.414122 -0.002886 0.915083
v -0.587009 -0.002886 0.822673
v -0.738546 -0.002886 0.698310
v -0.862909 -0.002886 0.546773
v -0.955318 -0.002886 0.373886
v -0.031439 1.997114 -0.008797
v -1.012224 -0.002886 0.186293
v -1.031439 -0.002886 -0.008798
v -1.012224 -0.002886 -0.203888
v -0.955318 -0.002886 -0.391481
v -0.862907 -0.002886 -0.564368
v -0.738544 -0.002886 -0.715904
v -0.587008 -0.002886 -0.840267
v -0.414121 -0.002886 -0.932677
v -0.226527 -0.002886 -0.989582
vn 0.0878 0.4455 -0.8910
vn 0.2599 0.4455 -0.8567
vn 0.4220 0.4455 -0.7896
vn 0.5680 0.4455 -0.6921
vn 0.6921 0.4455 -0.5680
vn 0.7896 0.4455 -0.4220
vn 0.8567 0.4455 -0.2599
vn 0.8910 0.4455 -0.0878
vn 0.8910 0.4455 0.0878
vn 0.8567 0.4455 0.2599
vn 0.7896 0.4455 0.4220
vn 0.6921 0.4455 0.5680
vn 0.5680 0.4455 0.6921
vn 0.4220 0.4455 0.7896
vn 0.2599 0.4455 0.8567
vn 0.0878 0.4455 0.8910
vn -0.0878 0.4455 0.8910
vn -0.2599 0.4455 0.8567
vn -0.4220 0.4455 0.7896
vn -0.5680 0.4455 0.6921
vn -0.6921 0.4455 0.5680
vn -0.7896 0.4455 0.4220
vn -0.8567 0.4455 0.2599
vn -0.8910 0.4455 0.0878
vn -0.8910 0.4455 -0.0878
vn -0.8567 0.4455 -0.2599
vn -0.7896 0.4455 -0.4220
vn -0.6921 0.4455 -0.5680
vn -0.5680 0.4455 -0.6921
vn -0.4220 0.4455 -0.7896
vn -0.2599 0.4455 -0.8567
vn -0.0878 0.4455 -0.8910
vn 0.0000 -1.0000 -0.0000
usemtl None
s off
f 1//1 24//1 2//1
f 2//2 24//2 3//2
f 3//3 24//3 4//3
f 4//4 24//4 5//4
f 5//5 24//5 6//5
f 6//6 24//6 7//6
f 7//7 24//7 8//7
f 8//8 24//8 9//8
f 9//9 24//9 10//9
f 10//10 24//10 11//10
f 11//11 24//11 12//11
f 12//12 24//12 13//12
f 13//13 24//13 14//13
f 14//14 24//14 15//14
f 15//15 24//15 16//15
f 16//16 24//16 17//16
f 17//17 24//17 18//17
f 18//18 24//18 19//18
f 19//19 24//19 20//19
f 20//20 24//20 21//20
f 21//21 24//21 22//21
f 22//22 24//22 23//22
f 23//23 24//23 25//23
f 25//24 24//24 26//24
f 26//25 24//25 27//25
f 27//26 24//26 28//26
f 28//27 24//27 29//27
f 29//28 24//28 30//28
f 30//29 24//29 31//29
f 31//30 24//30 32//30
f 32//31 24//31 33//31
f 33//32 24//32 1//32
f 1//33 2//33 3//33 4//33 5//33 6//33 7//33 8//33 9//33 10//33 11//33 12//33 13//33 14//33 15//33 16//33 17//33 18//33 19//33 20//33 21//33 22//33 23//33 25//33 26//33 27//33 28//33 29//33 30//33 31//33 32//33 33//33
